Title                            : The Mechanic
Year                             : 2011
Genre                            : Action | Crime | Thriller
iMDB URL                         : http://www.imdb.com/title/tt0472399/

Complete name                    : The.Mechanic.2011.BRRIP.720P.H264-ZEKTORM.mp4
Format                           : MPEG-4
Format profile                   : Base Media
Codec ID                         : isom
File size                        : 2.23 GiB
Duration                         : 1h 32mn
Overall bit rate                 : 3447 Kbps
Subtitles                        : English (Format: srt)

Video
ID                               : 1
Format                           : AVC
Format/Info                      : Advanced Video Codec
Format profile                   : High@L4.0
Format settings, CABAC           : Yes
Format settings, ReFrames        : 8 frames
Codec ID                         : avc1
Codec ID/Info                    : Advanced Video Coding
Duration                         : 1h 32mn
Bit rate mode                    : Variable
Bit rate                         : 3003 Kbps
Width                            : 1280 pixels
Height                           : 528 pixels
Display aspect ratio             : 2.424
Frame rate mode                  : Constant
Frame rate                       : 23.976 fps
Resolution                       : 24 bits
Colorimetry                      : 4:2:0
Scan type                        : Progressive
Bits/(Pixel*Frame)               : 0.185
Stream size                      : 1.95 GiB (87%)
Title                            : Video
Writing library                  : x264

Audio
ID                               : 2
Format                           : AAC
Format/Info                      : Advanced Audio Codec
Format version                   : Version 4
Format profile                   : LC
Format settings, SBR             : No
Codec ID                         : 40
Duration                         : 1h 32mn
Bit rate mode                    : Variable
Bit rate                         : 440 Kbps
Maximum bit rate                 : 560 Kbps
Channel(s)                       : 6 channels
Channel positions                : Front: L C R, Rear: L R, LFE
Sampling rate                    : 48.0 KHz
Resolution                       : 16 bits
Stream size                      : 292 MiB (13%)
Language                         : English


Screenshots:

[img]http://img291.imageshack.us/img291/8488/snaptm1.png[/img]

[img]http://img109.imageshack.us/img109/2985/snaptm2.png[/img]

[img]http://img810.imageshack.us/img810/3281/snaptm3.png[/img]

[img]http://img402.imageshack.us/img402/9843/snaptm4.png[/img]




